<svg xmlns="http://www.w3.org/2000/svg" xmlns:v="https://svgstorm.com" viewBox="0 0 696 696" width="696" height="696">
<g fill="None" fill-opacity="0.0" stroke="#FDFDFD" stroke-opacity="1.00" stroke-width="0.3">
</g>
<g fill="None" fill-opacity="0.0" stroke="#FBD7B3" stroke-opacity="1.00" stroke-width="0.3"><path d="
M 353.00 47.00 
C 339.54 78.93 322.92 109.86 310.00 142.00
C 313.04 136.77 316.55 130.48 319.00 125.00
C 321.76 116.38 326.66 108.50 330.00 100.00
C 340.99 72.00 355.83 45.24 368.00 18.00
C 369.82 11.84 372.62 6.01 375.00 0.00
L 374.00 0.00
C 366.10 15.30 359.65 31.23 353.00 47.00 Z" data-index="1" style="opacity: 1;"></path>
</g>
<g fill="None" fill-opacity="0.0" stroke="#FD8831" stroke-opacity="1.00" stroke-width="0.3"><path d="
M 368.00 18.00 
C 363.71 32.52 354.31 44.96 349.22 59.22 C 344.14 73.49 337.00 86.89 330.00 100.00
C 326.66 108.50 321.76 116.38 319.00 125.00
C 309.04 156.07 290.39 183.19 278.69 213.69 C 267.00 244.19 249.55 273.07 239.00 304.00
C 249.60 304.05 259.31 303.93 270.00 304.00 C 280.69 304.07 291.11 303.87 302.00 304.00 C 312.89 304.13 322.76 303.72 334.00 304.00 C 345.24 304.28 336.33 317.17 334.22 324.22 C 332.11 331.28 327.43 339.76 325.22 347.22 C 323.02 354.68 319.56 362.18 316.69 369.69 C 313.83 377.21 311.55 385.63 308.08 393.08 C 304.61 400.52 302.69 408.43 298.68 415.68 C 294.67 422.93 293.99 432.19 290.67 439.67 C 287.35 447.16 284.06 454.52 281.22 462.22 C 278.39 469.93 275.69 477.99 272.00 485.00
C 271.92 485.49 272.00 486.00 272.00 486.00
C 265.84 512.28 252.35 537.10 244.01 563.01 C 235.67 588.91 222.21 613.77 215.00 640.00
C 211.26 653.58 201.69 667.51 202.00 681.00
C 204.98 676.03 207.92 671.76 211.00 667.00
C 235.31 631.92 258.20 596.60 280.77 560.77 C 303.34 524.94 327.11 489.00 349.92 452.92 C 372.73 416.83 396.20 382.17 418.77 345.77 C 441.34 309.37 467.73 275.05 487.00 237.00
C 456.67 237.00 426.33 237.00 396.00 237.00
C 445.27 157.53 498.09 79.44 548.00 0.00
L 375.00 0.00
C 372.62 6.01 369.82 11.84 368.00 18.00 Z" data-index="2" style="opacity: 1;"></path>
</g>
<g fill="None" fill-opacity="0.0" stroke="#D87024" stroke-opacity="1.00" stroke-width="0.3"><path d="
M 211.00 667.00 
C 211.70 666.40 218.07 660.81 220.75 655.75 C 223.43 650.70 227.96 646.19 231.30 641.30 C 234.65 636.42 238.33 630.67 241.92 625.92 C 245.52 621.18 248.74 615.97 252.30 611.30 C 255.86 606.64 259.16 600.38 264.00 597.00
C 264.22 596.64 264.00 596.00 264.00 596.00
C 265.50 593.60 267.27 592.01 269.00 590.00
C 276.07 579.69 284.16 569.82 290.00 559.00
C 293.95 551.68 302.07 538.51 309.00 534.00
C 309.22 533.64 309.00 533.00 309.00 533.00
C 314.72 523.81 321.23 515.25 328.00 507.00
C 330.70 502.91 333.64 499.06 336.00 495.00
C 340.02 488.08 345.29 478.68 352.00 474.00
C 352.24 473.68 352.00 473.00 352.00 473.00
C 357.63 457.39 372.80 445.59 381.25 431.25 C 389.70 416.90 401.33 403.77 410.77 389.77 C 420.21 375.77 431.04 361.78 440.92 347.92 C 450.80 334.05 460.12 319.95 470.30 306.30 C 480.48 292.66 489.46 277.49 501.00 265.00
C 511.84 248.92 524.51 233.69 534.00 217.00
C 500.00 217.00 466.00 217.00 432.00 217.00
C 437.18 209.37 442.25 201.52 448.00 194.00
C 448.24 193.68 448.00 193.00 448.00 193.00
C 451.80 182.47 462.41 173.86 468.25 164.25 C 474.10 154.64 482.41 144.21 490.00 136.00
C 493.68 130.63 497.61 123.77 503.00 120.00
C 503.00 120.00 502.84 119.44 503.00 119.00
C 507.31 107.06 519.84 96.94 526.00 86.00
C 543.14 55.57 570.79 31.01 587.00 0.00
L 548.00 0.00
C 498.09 79.44 445.27 157.53 396.00 237.00
C 426.33 237.00 456.67 237.00 487.00 237.00
C 467.73 275.05 441.34 309.37 418.77 345.77 C 396.20 382.17 372.73 416.83 349.92 452.92 C 327.11 489.00 303.34 524.94 280.77 560.77 C 258.20 596.60 235.31 631.92 211.00 667.00 Z" data-index="3" style="opacity: 1;"></path>
</g>
<g fill="None" fill-opacity="0.0" stroke="#D09363" stroke-opacity="1.00" stroke-width="0.3"><path d="
M 526.00 86.00 
C 547.64 57.75 569.62 29.53 589.00 0.00
L 587.00 0.00
C 570.79 31.01 543.14 55.57 526.00 86.00 Z" data-index="4"></path>
</g>
<g fill="None" fill-opacity="0.0" stroke="#F5D3B2" stroke-opacity="1.00" stroke-width="0.3"><path d="
M 526.00 86.00 
C 519.84 96.94 507.31 107.06 503.00 119.00
C 516.38 109.63 522.30 92.16 533.08 80.08 C 543.87 68.01 551.83 52.97 562.23 40.23 C 572.63 27.49 581.76 13.44 591.00 0.00
L 589.00 0.00
C 569.62 29.53 547.64 57.75 526.00 86.00 Z" data-index="5" style="opacity: 1;"></path>
</g>
<g fill="None" fill-opacity="0.0" stroke="#C8C8C8" stroke-opacity="1.00" stroke-width="0.3"><path d="
M 8.00 6.00 
C 8.08 5.81 9.50 6.00 10.00 6.00
C 22.82 6.00 35.12 6.00 48.00 6.00 C 60.88 6.00 72.93 6.00 86.00 6.00 C 99.07 6.00 111.60 6.01 125.00 6.00 C 138.40 5.99 131.99 24.60 133.00 36.00 C 134.01 47.40 132.36 61.83 133.00 74.00 C 133.64 86.17 132.29 100.56 133.00 113.00 C 133.71 125.44 131.73 138.53 133.00 151.00 C 134.27 163.47 130.39 177.75 133.00 190.00
C 134.46 188.70 142.42 192.19 146.00 191.00 C 149.58 189.81 155.38 191.50 160.00 191.00 C 164.62 190.50 169.66 191.23 175.00 191.00 C 180.34 190.77 182.42 191.07 189.00 191.00 C 195.58 190.93 195.35 190.98 204.00 191.00 C 212.65 191.02 223.05 190.95 232.00 191.00 C 240.95 191.05 252.12 190.90 261.00 191.00 C 269.88 191.10 268.15 190.29 276.00 191.00
C 279.79 185.86 276.00 176.79 277.00 170.00 C 278.00 163.21 276.54 154.25 277.00 147.00 C 277.46 139.75 276.78 131.44 277.00 124.00 C 277.22 116.56 276.88 108.48 277.00 101.00 C 277.12 93.52 276.89 86.51 277.00 79.00 C 277.11 71.49 276.84 63.53 277.00 56.00 C 277.16 48.47 276.68 40.46 277.00 33.00 C 277.32 25.54 276.31 17.25 277.00 10.00 C 277.69 2.75 288.93 6.43 295.00 6.00 C 301.07 5.57 311.72 5.74 318.00 6.00 C 324.28 6.26 335.44 4.87 341.00 6.00 C 346.56 7.13 360.24 2.77 363.00 7.00
C 363.23 7.35 363.20 8.60 363.00 9.00
C 364.46 8.68 364.05 6.87 365.00 6.00
C 351.70 3.35 340.02 6.10 326.00 5.00 C 311.98 3.90 302.03 6.76 287.00 5.00 C 271.97 3.24 275.97 20.38 276.00 33.00 C 276.03 45.62 275.98 60.12 276.00 73.00 C 276.02 85.88 275.99 99.06 276.00 112.00 C 276.01 124.94 276.00 138.03 276.00 151.00 C 276.00 163.97 276.00 177.02 276.00 190.00
C 228.67 190.00 181.33 190.00 134.00 190.00
C 134.00 183.70 134.00 177.29 134.00 171.00 C 134.00 164.71 134.00 159.36 134.00 153.00 C 134.00 146.64 134.01 140.54 134.00 134.00 C 133.99 127.46 134.02 123.00 134.00 116.00 C 133.98 109.00 134.05 106.12 134.00 98.00 C 133.95 89.88 134.11 89.28 134.00 79.00 C 133.89 68.72 134.16 53.24 134.00 43.00 C 133.84 32.76 134.87 31.50 134.00 24.00 C 133.13 16.50 136.45 11.46 133.74 6.26 C 131.04 1.05 121.89 6.41 117.00 5.00 C 112.11 3.59 103.48 5.65 98.00 5.00 C 92.52 4.35 85.66 5.24 80.00 5.00 C 74.34 4.76 67.60 4.98 62.00 5.00 C 56.40 5.02 48.21 4.74 43.00 5.00 C 37.79 5.26 29.03 4.27 25.00 5.00 C 20.97 5.73 8.91 2.86 8.00 6.00 Z" data-index="6"></path>
</g>
<g fill="None" fill-opacity="0.0" stroke="#767676" stroke-opacity="1.00" stroke-width="0.3"><path d="
M 8.00 519.00 
C 8.00 519.04 9.00 519.00 9.00 519.00
C 9.25 518.75 9.00 518.00 9.00 518.00
C 9.00 507.33 9.00 496.67 9.00 486.00 C 9.00 475.33 9.00 464.67 9.00 454.00 C 9.00 443.33 9.00 432.67 9.00 422.00 C 9.00 411.33 9.00 400.67 9.00 390.00 C 9.00 379.33 9.00 368.67 9.00 358.00 C 9.00 347.33 9.00 336.67 9.00 326.00 C 9.00 315.33 9.00 304.66 9.00 294.00 C 9.00 283.34 8.99 272.66 9.00 262.00 C 9.01 251.34 8.99 240.66 9.00 230.00 C 9.01 219.34 8.97 208.64 9.00 198.00 C 9.03 187.36 8.93 176.61 9.00 166.00 C 9.07 155.39 8.84 144.55 9.00 134.00 C 9.16 123.45 8.65 112.41 9.00 102.00 C 9.35 91.59 8.22 80.09 9.00 70.00 C 9.78 59.91 7.27 47.39 9.00 38.00 C 10.73 28.61 4.71 14.15 10.00 7.00
C 10.24 6.68 10.00 6.00 10.00 6.00
C 9.50 6.00 8.08 5.81 8.00 6.00
C 4.22 14.51 9.77 27.64 8.00 37.00 C 6.23 46.36 8.80 57.28 8.00 67.00 C 7.20 76.72 8.36 87.11 8.00 97.00 C 7.64 106.89 8.16 117.01 8.00 127.00 C 7.84 136.99 8.07 146.93 8.00 157.00 C 7.93 167.07 8.03 177.91 8.00 188.00 C 7.97 198.09 8.01 207.96 8.00 218.00 C 7.99 228.04 8.01 237.97 8.00 248.00 C 7.99 258.03 8.00 267.97 8.00 278.00 C 8.00 288.03 8.00 297.95 8.00 308.00 C 8.00 318.05 7.99 327.90 8.00 338.00 C 8.01 348.10 7.98 358.90 8.00 369.00 C 8.02 379.10 7.96 388.96 8.00 399.00 C 8.04 409.04 7.92 418.99 8.00 429.00 C 8.08 439.01 7.82 449.01 8.00 459.00 C 8.18 468.99 7.60 479.03 8.00 489.00 C 8.40 498.97 7.10 509.08 8.00 519.00 Z" data-index="7"></path>
</g>
<g fill="None" fill-opacity="0.0" stroke="#505050" stroke-opacity="1.00" stroke-width="0.3"><path d="
M 10.00 7.00 
C 50.34 10.65 91.58 4.27 132.00 7.00
C 132.00 68.33 132.00 129.67 132.00 191.00
C 132.16 191.36 133.65 191.92 134.00 192.00
C 133.64 191.84 133.08 190.35 133.00 190.00
C 130.39 177.75 134.27 163.47 133.00 151.00 C 131.73 138.53 133.71 125.44 133.00 113.00 C 132.29 100.56 133.64 86.17 133.00 74.00 C 132.36 61.83 134.01 47.40 133.00 36.00 C 131.99 24.60 138.40 5.99 125.00 6.00 C 111.60 6.01 99.07 6.00 86.00 6.00 C 72.93 6.00 60.88 6.00 48.00 6.00 C 35.12 6.00 22.82 6.00 10.00 6.00
C 10.00 6.00 10.24 6.68 10.00 7.00 Z" data-index="8"></path>
</g>
<g fill="None" fill-opacity="0.0" stroke="#5B5B5B" stroke-opacity="1.00" stroke-width="0.3"><path d="
M 276.00 191.00 
C 275.76 191.32 276.00 192.00 276.00 192.00
C 276.83 192.41 277.74 190.22 278.00 190.00
C 281.55 179.03 276.44 165.65 278.00 154.00 C 279.56 142.35 277.27 128.95 278.00 117.00 C 278.73 105.05 277.67 93.11 278.00 81.00 C 278.33 68.89 277.83 56.22 278.00 44.00 C 278.17 31.78 277.87 19.25 278.00 7.00
C 306.33 7.00 334.67 7.00 363.00 7.00
C 360.24 2.77 346.56 7.13 341.00 6.00 C 335.44 4.87 324.28 6.26 318.00 6.00 C 311.72 5.74 301.07 5.57 295.00 6.00 C 288.93 6.43 277.69 2.75 277.00 10.00 C 276.31 17.25 277.32 25.54 277.00 33.00 C 276.68 40.46 277.16 48.47 277.00 56.00 C 276.84 63.53 277.11 71.49 277.00 79.00 C 276.89 86.51 277.12 93.52 277.00 101.00 C 276.88 108.48 277.22 116.56 277.00 124.00 C 276.78 131.44 277.46 139.75 277.00 147.00 C 276.54 154.25 278.00 163.21 277.00 170.00 C 276.00 176.79 279.79 185.86 276.00 191.00 Z" data-index="9"></path>
</g>
<g fill="None" fill-opacity="0.0" stroke="#5B5B5B" stroke-opacity="1.00" stroke-width="0.3"><path d="
M 590.00 13.00 
C 597.78 4.08 608.33 7.26 620.00 7.00 C 631.67 6.74 644.17 7.13 656.00 7.00 C 667.83 6.87 680.13 7.10 692.00 7.00
C 688.96 2.65 676.73 7.37 671.00 6.00 C 665.27 4.63 655.66 6.76 649.00 6.00 C 642.34 5.24 634.13 6.66 627.00 6.00 C 619.87 5.34 612.47 7.01 605.00 6.00 C 597.53 4.99 594.06 7.08 590.00 13.00 Z" data-index="10"></path>
</g>
<g fill="None" fill-opacity="0.0" stroke="#000000" stroke-opacity="1.00" stroke-width="0.3"><path d="
M 9.00 518.00 
C 49.68 514.37 91.24 520.73 132.00 518.00
C 132.01 508.20 131.98 498.85 132.00 489.00 C 132.02 479.15 131.97 468.89 132.00 459.00 C 132.03 449.11 131.93 438.86 132.00 429.00 C 132.07 419.14 131.84 408.75 132.00 399.00 C 132.16 389.25 131.66 378.46 132.00 369.00 C 132.34 359.54 131.24 347.80 132.00 339.00 C 132.76 330.20 127.78 315.38 138.00 315.00 C 148.22 314.62 157.98 315.20 168.00 315.00 C 178.02 314.80 187.08 315.13 197.00 315.00 C 206.92 314.87 217.12 315.15 227.00 315.00 C 236.88 314.85 247.23 315.26 257.00 315.00 C 266.77 314.74 279.38 312.34 278.00 324.00 C 276.62 335.66 278.63 343.25 278.00 354.00 C 277.37 364.75 278.29 373.65 278.00 384.00 C 277.71 394.35 278.15 403.82 278.00 414.00 C 277.85 424.18 278.11 433.86 278.00 444.00
C 279.26 443.92 278.56 441.94 280.00 442.00
C 293.93 399.36 310.90 356.48 328.00 315.00
C 328.18 314.57 328.00 314.00 328.00 314.00
C 323.61 309.47 311.60 314.45 305.00 313.00 C 298.40 311.55 288.27 313.79 281.00 313.00 C 273.73 312.21 264.45 313.67 257.00 313.00 C 249.55 312.33 240.60 314.43 234.00 312.00
C 221.34 307.33 234.22 291.38 237.69 282.69 C 241.16 274.01 247.11 261.62 251.23 252.23 C 255.35 242.84 261.31 232.12 265.23 222.23 C 269.15 212.34 275.12 202.06 279.00 192.00
C 274.46 196.81 261.72 191.48 255.00 193.00 C 248.28 194.52 237.50 192.29 230.00 193.00 C 222.50 193.71 212.74 192.63 205.00 193.00 C 197.26 193.37 187.57 192.73 180.00 193.00 C 172.43 193.27 173.30 192.73 168.00 193.00 C 162.70 193.27 159.15 192.56 155.00 193.00 C 150.85 193.44 145.68 192.03 143.00 193.00 C 140.32 193.97 131.28 191.85 132.00 191.00
C 132.00 129.67 132.00 68.33 132.00 7.00
C 91.58 4.27 50.34 10.65 10.00 7.00
C 4.71 14.15 10.73 28.61 9.00 38.00 C 7.27 47.39 9.78 59.91 9.00 70.00 C 8.22 80.09 9.35 91.59 9.00 102.00 C 8.65 112.41 9.16 123.45 9.00 134.00 C 8.84 144.55 9.07 155.39 9.00 166.00 C 8.93 176.61 9.03 187.36 9.00 198.00 C 8.97 208.64 9.01 219.34 9.00 230.00 C 8.99 240.66 9.01 251.34 9.00 262.00 C 8.99 272.66 9.00 283.34 9.00 294.00 C 9.00 304.66 9.00 315.33 9.00 326.00 C 9.00 336.67 9.00 347.33 9.00 358.00 C 9.00 368.67 9.00 379.33 9.00 390.00 C 9.00 400.67 9.00 411.33 9.00 422.00 C 9.00 432.67 9.00 443.33 9.00 454.00 C 9.00 464.67 9.00 475.33 9.00 486.00 C 9.00 496.67 9.00 507.33 9.00 518.00 Z" data-index="11"></path>
</g>
<g fill="None" fill-opacity="0.0" stroke="#000000" stroke-opacity="1.00" stroke-width="0.3"><path d="
M 278.00 190.00 
C 278.48 189.59 279.62 189.38 280.00 189.00
C 288.10 171.94 297.27 154.02 304.22 136.22 C 311.18 118.43 322.51 101.77 329.00 84.00
C 329.37 82.99 329.67 81.81 330.00 81.00
C 339.87 56.71 351.18 32.20 363.00 9.00
C 363.20 8.60 363.23 7.35 363.00 7.00
C 334.67 7.00 306.33 7.00 278.00 7.00
C 277.87 19.25 278.17 31.78 278.00 44.00 C 277.83 56.22 278.33 68.89 278.00 81.00 C 277.67 93.11 278.73 105.05 278.00 117.00 C 277.27 128.95 279.56 142.35 278.00 154.00 C 276.44 165.65 281.55 179.03 278.00 190.00 Z" data-index="12"></path>
</g>
<g fill="None" fill-opacity="0.0" stroke="#000000" stroke-opacity="1.00" stroke-width="0.3"><path d="
M 590.00 13.00 
C 580.01 27.57 568.59 41.14 559.00 56.00
C 557.49 58.34 555.63 59.99 554.00 62.00
C 551.13 66.45 548.02 70.60 545.00 75.00
C 542.48 78.67 539.74 81.67 537.00 85.00
C 535.10 90.62 529.13 94.51 527.00 100.00
C 582.00 100.00 637.00 100.00 692.00 100.00
C 691.90 93.78 692.13 87.18 692.00 81.00 C 691.87 74.82 692.26 68.04 692.00 62.00 C 691.74 55.96 692.59 49.78 692.00 44.00 C 691.41 38.22 693.23 30.30 692.00 25.00 C 690.77 19.70 694.88 11.11 692.00 7.00
C 680.13 7.10 667.83 6.87 656.00 7.00 C 644.17 7.13 631.67 6.74 620.00 7.00 C 608.33 7.26 597.78 4.08 590.00 13.00 Z" data-index="13"></path>
</g>
<g fill="None" fill-opacity="0.0" stroke="#E8A269" stroke-opacity="1.00" stroke-width="0.3"><path d="
M 330.00 100.00 
C 337.00 86.89 344.14 73.49 349.22 59.22 C 354.31 44.96 363.71 32.52 368.00 18.00
C 355.83 45.24 340.99 72.00 330.00 100.00 Z" data-index="14"></path>
</g>
<g fill="None" fill-opacity="0.0" stroke="#FCF5E4" stroke-opacity="1.00" stroke-width="0.3"><path d="
M 330.00 81.00 
C 329.67 81.81 329.37 82.99 329.00 84.00
C 335.34 91.76 325.68 100.91 322.75 109.75 C 319.83 118.60 312.81 126.35 311.00 136.00
C 306.39 137.21 308.04 133.89 307.00 132.00
C 307.49 139.65 305.38 146.57 303.00 154.00
C 304.81 150.34 307.79 145.81 310.00 142.00
C 322.92 109.86 339.54 78.93 353.00 47.00
C 350.90 47.81 349.77 50.92 347.00 50.00
C 349.45 56.42 344.38 62.65 340.97 67.97 C 337.56 73.30 336.60 81.27 332.00 85.00
C 331.79 83.60 330.12 82.39 330.00 81.00 Z" data-index="15" style="opacity: 1;"></path>
</g>
<g fill="None" fill-opacity="0.0" stroke="#727573" stroke-opacity="1.00" stroke-width="0.3"><path d="
M 554.00 62.00 
C 555.63 59.99 557.49 58.34 559.00 56.00
C 557.37 58.01 555.51 59.66 554.00 62.00 Z" data-index="16"></path>
</g>
<g fill="None" fill-opacity="0.0" stroke="#7A7A7B" stroke-opacity="1.00" stroke-width="0.3"><path d="
M 537.00 85.00 
C 539.74 81.67 542.48 78.67 545.00 75.00
C 542.25 78.19 539.39 81.30 537.00 85.00 Z" data-index="17"></path>
</g>
<g fill="None" fill-opacity="0.0" stroke="#F0CAA5" stroke-opacity="1.00" stroke-width="0.3"><path d="
M 490.00 136.00 
C 483.58 145.36 476.80 155.82 469.25 164.25 C 461.69 172.68 457.60 186.75 448.00 193.00
C 448.00 193.00 448.24 193.68 448.00 194.00
C 456.80 190.33 460.44 176.63 466.75 169.75 C 473.07 162.88 479.36 152.98 485.23 145.23 C 491.10 137.48 497.79 128.38 503.00 120.00
C 497.61 123.77 493.68 130.63 490.00 136.00 Z" data-index="18" style="opacity: 1;"></path>
</g>
<g fill="None" fill-opacity="0.0" stroke="#F0B88A" stroke-opacity="1.00" stroke-width="0.3"><path d="
M 310.00 142.00 
C 307.79 145.81 304.81 150.34 303.00 154.00
C 302.08 156.86 301.24 159.18 300.00 162.00
C 292.28 179.47 284.10 196.90 276.00 214.00
C 275.64 215.11 275.45 215.91 275.00 217.00
C 262.83 246.31 247.46 274.98 237.00 305.00
C 271.00 305.00 305.00 305.00 339.00 305.00
C 337.42 311.90 335.48 319.55 331.00 325.00
C 323.35 356.85 307.97 388.50 296.00 419.00
C 292.69 427.44 290.06 437.08 286.22 445.22 C 282.38 453.37 281.54 465.17 276.00 472.00
C 276.00 472.00 276.18 472.57 276.00 473.00
C 274.44 476.78 272.66 480.95 272.00 485.00
C 275.69 477.99 278.39 469.93 281.22 462.22 C 284.06 454.52 287.35 447.16 290.67 439.67 C 293.99 432.19 294.67 422.93 298.68 415.68 C 302.69 408.43 304.61 400.52 308.08 393.08 C 311.55 385.63 313.83 377.21 316.69 369.69 C 319.56 362.18 323.02 354.68 325.22 347.22 C 327.43 339.76 332.11 331.28 334.22 324.22 C 336.33 317.17 345.24 304.28 334.00 304.00 C 322.76 303.72 312.89 304.13 302.00 304.00 C 291.11 303.87 280.69 304.07 270.00 304.00 C 259.31 303.93 249.60 304.05 239.00 304.00
C 249.55 273.07 267.00 244.19 278.69 213.69 C 290.39 183.19 309.04 156.07 319.00 125.00
C 316.55 130.48 313.04 136.77 310.00 142.00 Z" data-index="19" style="opacity: 1;"></path>
</g>
<g fill="None" fill-opacity="0.0" stroke="#000000" stroke-opacity="1.00" stroke-width="0.3"><path d="
M 494.00 144.00 
C 493.09 145.35 492.73 146.76 492.00 148.00
C 490.38 150.77 487.82 152.67 486.00 155.00
C 474.74 173.19 459.46 189.08 448.00 207.00
C 447.77 207.35 448.00 208.00 448.00 208.00
C 451.47 211.58 460.73 208.16 466.00 209.00 C 471.27 209.84 479.25 208.88 485.00 209.00 C 490.75 209.12 498.16 209.53 504.00 209.00
C 504.00 208.50 504.00 208.00 504.00 208.00
C 503.34 182.82 505.33 156.43 503.00 132.00
C 500.16 136.13 496.82 139.81 494.00 144.00 Z" data-index="20"></path>
</g>
<g fill="None" fill-opacity="0.0" stroke="#CC8D58" stroke-opacity="1.00" stroke-width="0.3"><path d="
M 448.00 193.00 
C 457.60 186.75 461.69 172.68 469.25 164.25 C 476.80 155.82 483.58 145.36 490.00 136.00
C 482.41 144.21 474.10 154.64 468.25 164.25 C 462.41 173.86 451.80 182.47 448.00 193.00 Z" data-index="21" style="opacity: 1;"></path>
</g>
<g fill="None" fill-opacity="0.0" stroke="#BBB7B2" stroke-opacity="1.00" stroke-width="0.3"><path d="
M 490.00 149.00 
C 490.43 148.60 491.68 148.36 492.00 148.00
C 492.73 146.76 493.09 145.35 494.00 144.00
C 492.50 145.73 491.28 146.93 490.00 149.00 Z" data-index="22"></path>
</g>
<g fill="None" fill-opacity="0.0" stroke="#6E6E69" stroke-opacity="1.00" stroke-width="0.3"><path d="
M 490.00 149.00 
C 488.73 151.06 487.29 152.92 486.00 155.00
C 487.82 152.67 490.38 150.77 492.00 148.00
C 491.68 148.36 490.43 148.60 490.00 149.00 Z" data-index="23"></path>
</g>
<g fill="None" fill-opacity="0.0" stroke="#FEF3DE" stroke-opacity="1.00" stroke-width="0.3"><path d="
M 276.00 214.00 
C 284.10 196.90 292.28 179.47 300.00 162.00
C 295.27 168.76 290.83 178.75 287.26 187.26 C 283.69 195.77 278.84 205.10 276.00 214.00 Z" data-index="24" style="opacity: 1;"></path>
</g>
<g fill="None" fill-opacity="0.0" stroke="#272727" stroke-opacity="1.00" stroke-width="0.3"><path d="
M 278.00 190.00 
C 277.74 190.22 276.83 192.41 276.00 192.00
C 260.61 193.39 244.47 191.93 229.00 192.00 C 213.53 192.07 197.40 193.22 182.00 192.00 C 166.60 190.78 149.06 195.21 134.00 192.00
C 133.65 191.92 132.16 191.36 132.00 191.00
C 131.28 191.85 140.32 193.97 143.00 193.00 C 145.68 192.03 150.85 193.44 155.00 193.00 C 159.15 192.56 162.70 193.27 168.00 193.00 C 173.30 192.73 172.43 193.27 180.00 193.00 C 187.57 192.73 197.26 193.37 205.00 193.00 C 212.74 192.63 222.50 193.71 230.00 193.00 C 237.50 192.29 248.28 194.52 255.00 193.00 C 261.72 191.48 274.46 196.81 279.00 192.00
C 279.41 190.95 279.49 190.06 280.00 189.00
C 279.62 189.38 278.48 189.59 278.00 190.00 Z" data-index="25"></path>
</g>
<g fill="None" fill-opacity="0.0" stroke="#848484" stroke-opacity="1.00" stroke-width="0.3"><path d="
M 134.00 192.00 
C 149.06 195.21 166.60 190.78 182.00 192.00 C 197.40 193.22 213.53 192.07 229.00 192.00 C 244.47 191.93 260.61 193.39 276.00 192.00
C 276.00 192.00 275.76 191.32 276.00 191.00
C 268.15 190.29 269.88 191.10 261.00 191.00 C 252.12 190.90 240.95 191.05 232.00 191.00 C 223.05 190.95 212.65 191.02 204.00 191.00 C 195.35 190.98 195.58 190.93 189.00 191.00 C 182.42 191.07 180.34 190.77 175.00 191.00 C 169.66 191.23 164.62 190.50 160.00 191.00 C 155.38 191.50 149.58 189.81 146.00 191.00 C 142.42 192.19 134.46 188.70 133.00 190.00
C 133.08 190.35 133.64 191.84 134.00 192.00 Z" data-index="26"></path>
</g>
<g fill="None" fill-opacity="0.0" stroke="#D3D6D5" stroke-opacity="1.00" stroke-width="0.3"><path d="
M 538.00 211.00 
C 528.80 207.69 514.26 210.00 504.00 210.00
C 498.09 210.00 489.66 209.87 484.00 210.00 C 478.34 210.13 468.73 209.66 464.00 210.00 C 459.27 210.34 446.36 210.08 448.00 208.00
C 448.00 208.00 447.77 207.35 448.00 207.00
C 446.25 207.39 445.70 209.43 446.00 211.00
C 461.07 212.23 477.02 209.36 492.00 211.00 C 506.98 212.64 523.34 207.86 538.00 211.00 Z" data-index="27"></path>
</g>
<g fill="None" fill-opacity="0.0" stroke="#5B5D5C" stroke-opacity="1.00" stroke-width="0.3"><path d="
M 504.00 210.00 
C 503.96 210.00 504.00 209.00 504.00 209.00
C 498.16 209.53 490.75 209.12 485.00 209.00 C 479.25 208.88 471.27 209.84 466.00 209.00 C 460.73 208.16 451.47 211.58 448.00 208.00
C 446.36 210.08 459.27 210.34 464.00 210.00 C 468.73 209.66 478.34 210.13 484.00 210.00 C 489.66 209.87 498.09 210.00 504.00 210.00 Z" data-index="28"></path>
</g>
<g fill="None" fill-opacity="0.0" stroke="#A2A2A2" stroke-opacity="1.00" stroke-width="0.3"><path d="
M 504.00 209.00 
C 504.00 209.00 503.96 210.00 504.00 210.00
C 514.26 210.00 528.80 207.69 538.00 211.00
C 539.47 211.53 540.81 211.75 542.00 213.00
C 540.96 211.76 539.82 210.35 539.00 209.00
C 587.33 209.00 635.67 209.00 684.00 209.00
C 684.00 245.33 684.00 281.67 684.00 318.00
C 624.16 318.67 563.01 316.67 504.00 319.00
C 504.00 318.96 505.00 319.00 505.00 319.00
C 516.40 319.00 527.58 318.94 539.00 319.00 C 550.42 319.06 561.49 318.83 573.00 319.00 C 584.51 319.17 595.30 318.62 607.00 319.00 C 618.70 319.38 627.71 318.12 640.00 319.00 C 652.29 319.88 660.46 317.11 674.00 319.00 C 687.55 320.89 685.33 307.50 685.00 296.00 C 684.67 284.50 684.66 274.66 685.00 263.00 C 685.34 251.34 683.84 241.11 685.00 229.00 C 686.16 216.89 685.76 205.56 672.00 208.00 C 658.24 210.44 650.38 206.84 638.00 208.00 C 625.62 209.16 616.72 207.42 605.00 208.00 C 593.28 208.58 582.46 207.59 571.00 208.00 C 559.54 208.41 548.28 207.48 537.00 208.00 C 525.72 208.52 515.15 206.99 504.00 208.00
C 504.00 208.00 504.00 208.50 504.00 209.00 Z" data-index="29"></path>
</g>
<g fill="None" fill-opacity="0.0" stroke="#383838" stroke-opacity="1.00" stroke-width="0.3"><path d="
M 542.00 213.00 
C 542.23 213.28 542.93 213.76 543.00 214.00
C 542.49 212.55 542.04 211.26 541.00 210.00
C 588.33 210.00 635.67 210.00 683.00 210.00
C 683.00 245.67 683.00 281.33 683.00 317.00
C 673.33 317.02 663.67 316.98 654.00 317.00 C 644.33 317.02 634.67 316.96 625.00 317.00 C 615.33 317.04 605.68 316.91 596.00 317.00 C 586.32 317.09 576.70 316.80 567.00 317.00 C 557.30 317.20 546.63 316.57 537.00 317.00 C 527.37 317.43 517.40 316.02 508.00 317.00 C 498.60 317.98 503.97 332.76 503.00 341.00 C 502.03 349.24 503.35 361.02 503.00 370.00 C 502.65 378.98 502.96 389.74 503.00 399.00 C 503.04 408.26 502.14 419.50 504.00 428.00
C 506.44 391.89 500.74 355.04 504.00 319.00
C 563.01 316.67 624.16 318.67 684.00 318.00
C 684.00 281.67 684.00 245.33 684.00 209.00
C 635.67 209.00 587.33 209.00 539.00 209.00
C 539.82 210.35 540.96 211.76 542.00 213.00 Z" data-index="30"></path>
</g>
<g fill="None" fill-opacity="0.0" stroke="#000000" stroke-opacity="1.00" stroke-width="0.3"><path d="
M 543.00 214.00 
C 545.79 223.68 531.88 232.92 527.92 240.92 C 523.95 248.92 515.47 256.64 510.77 264.77 C 506.07 272.90 499.06 280.79 493.77 288.77 C 488.48 296.75 481.73 304.81 477.00 313.00
C 476.00 314.73 475.24 315.63 474.00 317.00
C 425.78 383.82 377.15 451.42 330.00 519.00
C 450.66 519.00 571.34 519.00 692.00 519.00
C 690.62 504.34 693.84 488.54 692.00 474.00 C 690.16 459.46 695.52 443.12 692.00 429.00
C 683.03 428.97 673.96 429.04 665.00 429.00 C 656.04 428.96 646.93 429.07 638.00 429.00 C 629.07 428.93 619.86 429.15 611.00 429.00 C 602.14 428.85 592.69 429.32 584.00 429.00 C 575.31 428.68 565.32 429.71 557.00 429.00 C 548.68 428.29 537.49 430.58 530.00 429.00 C 522.51 427.42 508.97 432.96 504.00 428.00
C 502.14 419.50 503.04 408.26 503.00 399.00 C 502.96 389.74 502.65 378.98 503.00 370.00 C 503.35 361.02 502.03 349.24 503.00 341.00 C 503.97 332.76 498.60 317.98 508.00 317.00 C 517.40 316.02 527.37 317.43 537.00 317.00 C 546.63 316.57 557.30 317.20 567.00 317.00 C 576.70 316.80 586.32 317.09 596.00 317.00 C 605.68 316.91 615.33 317.04 625.00 317.00 C 634.67 316.96 644.33 317.02 654.00 317.00 C 663.67 316.98 673.33 317.02 683.00 317.00
C 683.00 281.33 683.00 245.67 683.00 210.00
C 635.67 210.00 588.33 210.00 541.00 210.00
C 542.04 211.26 542.49 212.55 543.00 214.00 Z" data-index="31"></path>
</g>
<g fill="None" fill-opacity="0.0" stroke="#FEEFD7" stroke-opacity="1.00" stroke-width="0.3"><path d="
M 331.00 325.00 
C 335.48 319.55 337.42 311.90 339.00 305.00
C 305.00 305.00 271.00 305.00 237.00 305.00
C 247.46 274.98 262.83 246.31 275.00 217.00
C 259.71 247.08 247.09 275.22 233.00 306.00
C 248.79 308.58 266.90 306.61 284.00 307.00 C 301.10 307.39 319.26 307.45 336.00 306.00
C 336.27 312.99 332.52 318.67 331.00 325.00 Z" data-index="32" style="opacity: 1;"></path>
</g>
<g fill="None" fill-opacity="0.0" stroke="#D19666" stroke-opacity="1.00" stroke-width="0.3"><path d="
M 352.00 473.00 
C 365.09 463.86 370.06 443.95 381.75 432.75 C 393.44 421.55 398.93 403.06 410.75 391.75 C 422.58 380.45 427.53 360.41 441.00 351.00
C 441.00 351.00 440.78 350.36 441.00 350.00
C 449.70 336.01 460.90 323.41 470.00 310.00
C 476.97 294.04 491.04 279.51 501.00 265.00
C 489.46 277.49 480.48 292.66 470.30 306.30 C 460.12 319.95 450.80 334.05 440.92 347.92 C 431.04 361.78 420.21 375.77 410.77 389.77 C 401.33 403.77 389.70 416.90 381.25 431.25 C 372.80 445.59 357.63 457.39 352.00 473.00 Z" data-index="33"></path>
</g>
<g fill="None" fill-opacity="0.0" stroke="#FCE7CF" stroke-opacity="1.00" stroke-width="0.3"><path d="
M 441.00 350.00 
C 447.39 345.84 454.18 337.37 457.67 331.67 C 461.17 325.97 467.18 316.46 470.00 310.00
C 460.90 323.41 449.70 336.01 441.00 350.00 Z" data-index="34"></path>
</g>
<g fill="None" fill-opacity="0.0" stroke="#D4D6D7" stroke-opacity="1.00" stroke-width="0.3"><path d="
M 234.00 312.00 
C 241.67 311.87 250.44 312.17 258.00 312.00 C 265.56 311.83 275.92 312.31 283.00 312.00 C 290.08 311.69 301.25 312.69 307.00 312.00 C 312.75 311.31 329.11 312.60 328.00 314.00
C 328.00 314.00 328.18 314.57 328.00 315.00
C 333.60 312.90 319.94 309.53 315.00 311.00 C 310.06 312.47 299.88 310.45 294.00 311.00 C 288.12 311.55 280.28 311.12 274.00 311.00 C 267.72 310.88 259.27 311.77 253.00 311.00 C 246.73 310.23 239.25 312.67 234.00 312.00 Z" data-index="35" style="opacity: 1;"></path>
</g>
<g fill="None" fill-opacity="0.0" stroke="#4F5355" stroke-opacity="1.00" stroke-width="0.3"><path d="
M 328.00 314.00 
C 329.11 312.60 312.75 311.31 307.00 312.00 C 301.25 312.69 290.08 311.69 283.00 312.00 C 275.92 312.31 265.56 311.83 258.00 312.00 C 250.44 312.17 241.67 311.87 234.00 312.00
C 240.60 314.43 249.55 312.33 257.00 313.00 C 264.45 313.67 273.73 312.21 281.00 313.00 C 288.27 313.79 298.40 311.55 305.00 313.00 C 311.60 314.45 323.61 309.47 328.00 314.00 Z" data-index="36" style="opacity: 1;"></path>
</g>
<g fill="None" fill-opacity="0.0" stroke="#575B61" stroke-opacity="1.00" stroke-width="0.3"><path d="
M 474.00 317.00 
C 475.24 315.63 476.00 314.73 477.00 313.00
C 476.08 314.19 474.83 315.85 474.00 317.00 Z" data-index="37"></path>
</g>
<g fill="None" fill-opacity="0.0" stroke="#4C4C4B" stroke-opacity="1.00" stroke-width="0.3"><path d="
M 9.00 518.00 
C 9.00 518.00 9.25 518.75 9.00 519.00
C 50.33 518.99 91.67 519.01 133.00 519.00
C 133.00 451.33 133.00 383.67 133.00 316.00
C 181.00 316.00 229.00 316.00 277.00 316.00
C 277.02 323.34 276.97 330.65 277.00 338.00 C 277.03 345.35 276.95 352.64 277.00 360.00 C 277.05 367.36 276.90 375.72 277.00 383.00 C 277.10 390.28 276.76 397.97 277.00 405.00 C 277.24 412.03 276.47 420.43 277.00 427.00 C 277.53 433.57 274.97 444.03 279.00 446.00
C 279.45 444.70 279.58 443.28 280.00 442.00
C 278.56 441.94 279.26 443.92 278.00 444.00
C 278.11 433.86 277.85 424.18 278.00 414.00 C 278.15 403.82 277.71 394.35 278.00 384.00 C 278.29 373.65 277.37 364.75 278.00 354.00 C 278.63 343.25 276.62 335.66 278.00 324.00 C 279.38 312.34 266.77 314.74 257.00 315.00 C 247.23 315.26 236.88 314.85 227.00 315.00 C 217.12 315.15 206.92 314.87 197.00 315.00 C 187.08 315.13 178.02 314.80 168.00 315.00 C 157.98 315.20 148.22 314.62 138.00 315.00 C 127.78 315.38 132.76 330.20 132.00 339.00 C 131.24 347.80 132.34 359.54 132.00 369.00 C 131.66 378.46 132.16 389.25 132.00 399.00 C 131.84 408.75 132.07 419.14 132.00 429.00 C 131.93 438.86 132.03 449.11 132.00 459.00 C 131.97 468.89 132.02 479.15 132.00 489.00 C 131.98 498.85 132.01 508.20 132.00 518.00
C 91.24 520.73 49.68 514.37 9.00 518.00 Z" data-index="38"></path>
</g>
<g fill="None" fill-opacity="0.0" stroke="#BBBBBB" stroke-opacity="1.00" stroke-width="0.3"><path d="
M 9.00 519.00 
C 9.00 519.00 8.00 519.04 8.00 519.00
C 17.58 520.78 29.62 520.07 40.00 520.00 C 50.38 519.93 62.90 520.51 73.00 520.00 C 83.10 519.49 96.78 521.30 106.00 520.00 C 115.22 518.70 132.43 525.15 134.00 515.00 C 135.57 504.85 133.29 492.62 134.00 482.00 C 134.71 471.38 133.68 459.83 134.00 449.00 C 134.32 438.17 133.85 426.92 134.00 416.00 C 134.15 405.08 133.93 393.96 134.00 383.00 C 134.07 372.04 133.96 360.98 134.00 350.00 C 134.04 339.02 133.97 327.99 134.00 317.00
C 181.33 317.00 228.67 317.00 276.00 317.00
C 276.00 361.33 276.00 405.67 276.00 450.00
C 278.46 450.39 278.47 447.53 279.00 446.00
C 274.97 444.03 277.53 433.57 277.00 427.00 C 276.47 420.43 277.24 412.03 277.00 405.00 C 276.76 397.97 277.10 390.28 277.00 383.00 C 276.90 375.72 277.05 367.36 277.00 360.00 C 276.95 352.64 277.03 345.35 277.00 338.00 C 276.97 330.65 277.02 323.34 277.00 316.00
C 229.00 316.00 181.00 316.00 133.00 316.00
C 133.00 383.67 133.00 451.33 133.00 519.00
C 91.67 519.01 50.33 518.99 9.00 519.00 Z" data-index="39"></path>
</g>
<g fill="None" fill-opacity="0.0" stroke="#C8C8C8" stroke-opacity="1.00" stroke-width="0.3"><path d="
M 504.00 428.00 
C 566.50 428.67 630.32 426.67 692.00 429.00
C 686.42 425.05 673.82 427.47 664.00 427.00 C 654.18 426.53 642.27 427.21 632.00 427.00 C 621.73 426.79 610.47 427.10 600.00 427.00 C 589.53 426.90 578.53 427.05 568.00 427.00 C 557.47 426.95 546.50 427.02 536.00 427.00 C 525.50 426.98 515.46 427.02 505.00 427.00
C 502.61 391.21 508.19 354.72 505.00 319.00
C 505.00 319.00 504.00 318.96 504.00 319.00
C 500.74 355.04 506.44 391.89 504.00 428.00 Z" data-index="40"></path>
</g>
<g fill="None" fill-opacity="0.0" stroke="#F7D9BB" stroke-opacity="1.00" stroke-width="0.3"><path d="
M 352.00 473.00 
C 352.00 473.00 352.24 473.68 352.00 474.00
C 349.96 476.67 347.79 479.22 346.00 482.00
C 347.51 480.16 350.53 478.79 352.00 477.00
C 360.09 467.16 366.29 455.52 374.25 445.25 C 382.21 434.98 390.39 424.13 396.25 413.25 C 402.10 402.36 413.63 393.24 419.23 382.23 C 424.83 371.22 436.84 362.53 441.00 351.00
C 427.53 360.41 422.58 380.45 410.75 391.75 C 398.93 403.06 393.44 421.55 381.75 432.75 C 370.06 443.95 365.09 463.86 352.00 473.00 Z" data-index="41" style="opacity: 1;"></path>
</g>
<g fill="None" fill-opacity="0.0" stroke="#FEF5E2" stroke-opacity="1.00" stroke-width="0.3">
</g>
<g fill="None" fill-opacity="0.0" stroke="#5D5D5D" stroke-opacity="1.00" stroke-width="0.3"><path d="
M 692.00 429.00 
C 630.32 426.67 566.50 428.67 504.00 428.00
C 508.97 432.96 522.51 427.42 530.00 429.00 C 537.49 430.58 548.68 428.29 557.00 429.00 C 565.32 429.71 575.31 428.68 584.00 429.00 C 592.69 429.32 602.14 428.85 611.00 429.00 C 619.86 429.15 629.07 428.93 638.00 429.00 C 646.93 429.07 656.04 428.96 665.00 429.00 C 673.96 429.04 683.03 428.97 692.00 429.00 Z" data-index="43"></path>
</g>
<g fill="None" fill-opacity="0.0" stroke="#FEF3DC" stroke-opacity="1.00" stroke-width="0.3"><path d="
M 261.00 510.00 
C 263.48 503.02 267.31 491.85 272.00 486.00
C 272.00 486.00 271.92 485.49 272.00 485.00
C 272.66 480.95 274.44 476.78 276.00 473.00
C 274.84 473.48 274.06 474.11 273.00 473.00
C 272.05 486.34 264.10 497.29 261.00 510.00 Z" data-index="44" style="opacity: 1;"></path>
</g>
<g fill="None" fill-opacity="0.0" stroke="#D19769" stroke-opacity="1.00" stroke-width="0.3">
</g>
<g fill="None" fill-opacity="0.0" stroke="#FDF5E3" stroke-opacity="1.00" stroke-width="0.3"><path d="
M 346.00 482.00 
C 344.92 483.67 344.04 486.29 343.00 488.00
C 337.06 497.79 329.88 508.00 322.75 516.75 C 315.62 525.51 310.42 538.40 301.00 545.00
C 300.76 545.32 301.00 546.00 301.00 546.00
C 300.48 551.61 294.26 554.90 291.75 559.75 C 289.23 564.59 284.91 569.31 282.00 574.00
C 288.59 571.46 290.19 563.26 294.08 559.08 C 297.97 554.90 302.28 547.04 305.08 543.13 C 307.89 539.22 311.26 532.93 315.75 528.75 C 320.24 524.57 323.62 516.85 326.75 513.19 C 329.88 509.52 333.06 501.40 337.00 503.00
C 338.23 492.67 348.57 485.84 352.00 477.00
C 350.53 478.79 347.51 480.16 346.00 482.00 Z" data-index="46" style="opacity: 1; visibility: hidden;"></path>
</g>
<g fill="None" fill-opacity="0.0" stroke="#F6C99F" stroke-opacity="1.00" stroke-width="0.3">
</g>
<g fill="None" fill-opacity="0.0" stroke="#F2CEAC" stroke-opacity="1.00" stroke-width="0.3"><path d="
M 336.00 495.00 
C 333.64 499.06 330.70 502.91 328.00 507.00
C 322.95 514.66 316.70 527.98 309.00 533.00
C 309.00 533.00 309.22 533.64 309.00 534.00
C 306.60 537.86 303.75 541.40 301.00 545.00
C 310.42 538.40 315.62 525.51 322.75 516.75 C 329.88 508.00 337.06 497.79 343.00 488.00
C 341.11 490.46 338.02 492.54 336.00 495.00 Z" data-index="48" style="opacity: 1;"></path>
</g>
<g fill="None" fill-opacity="0.0" stroke="#CD9463" stroke-opacity="1.00" stroke-width="0.3"><path d="
M 309.00 533.00 
C 316.70 527.98 322.95 514.66 328.00 507.00
C 321.23 515.25 314.72 523.81 309.00 533.00 Z" data-index="49" style="opacity: 1;"></path>
</g>
<g fill="None" fill-opacity="0.0" stroke="#FEF2DF" stroke-opacity="1.00" stroke-width="0.3"><path d="
M 236.00 578.00 
C 242.85 563.01 249.63 546.12 254.00 530.00
C 246.14 544.72 241.56 560.63 236.00 578.00 Z" data-index="50"></path>
</g>
<g fill="None" fill-opacity="0.0" stroke="#CE905E" stroke-opacity="1.00" stroke-width="0.3"><path d="
M 290.00 559.00 
C 293.25 554.76 297.25 549.59 301.00 546.00
C 301.00 546.00 300.76 545.32 301.00 545.00
C 303.75 541.40 306.60 537.86 309.00 534.00
C 302.07 538.51 293.95 551.68 290.00 559.00 Z" data-index="51" style="opacity: 1;"></path>
</g>
<g fill="None" fill-opacity="0.0" stroke="#F7D8BA" stroke-opacity="1.00" stroke-width="0.3"><path d="
M 290.00 559.00 
C 284.16 569.82 276.07 579.69 269.00 590.00
C 267.42 592.30 266.36 594.46 264.00 596.00
C 264.00 596.00 264.22 596.64 264.00 597.00
C 245.58 626.61 223.52 654.85 203.00 683.00
C 206.91 681.98 207.68 674.05 212.00 676.00
C 220.85 657.29 235.17 641.55 246.25 624.25 C 257.32 606.95 271.17 591.50 282.00 574.00
C 284.91 569.31 289.23 564.59 291.75 559.75 C 294.26 554.90 300.48 551.61 301.00 546.00
C 297.25 549.59 293.25 554.76 290.00 559.00 Z" data-index="52" style="opacity: 1;"></path>
</g>
<g fill="None" fill-opacity="0.0" stroke="#D19C6D" stroke-opacity="1.00" stroke-width="0.3"><path d="
M 264.00 596.00 
C 266.36 594.46 267.42 592.30 269.00 590.00
C 267.27 592.01 265.50 593.60 264.00 596.00 Z" data-index="53"></path>
</g>
<g fill="None" fill-opacity="0.0" stroke="#DE9D6A" stroke-opacity="1.00" stroke-width="0.3"><path d="
M 211.00 667.00 
C 207.92 671.76 204.98 676.03 202.00 681.00
C 201.69 667.51 211.26 653.58 215.00 640.00
C 214.01 642.52 211.11 645.49 210.00 648.00
C 205.42 662.84 198.47 676.88 195.00 692.00
C 198.46 689.84 200.65 686.22 203.00 683.00
C 223.52 654.85 245.58 626.61 264.00 597.00
C 259.16 600.38 255.86 606.64 252.30 611.30 C 248.74 615.97 245.52 621.18 241.92 625.92 C 238.33 630.67 234.65 636.42 231.30 641.30 C 227.96 646.19 223.43 650.70 220.75 655.75 C 218.07 660.81 211.70 666.40 211.00 667.00 Z" data-index="54" style="opacity: 1;"></path>
</g>
<g fill="#FDFDFD" fill-opacity="1.00" stroke="None">
</g>
<g fill="#FBD7B3" fill-opacity="1.00" stroke="None"><path d="
M 353.00 47.00 
C 339.54 78.93 322.92 109.86 310.00 142.00
C 313.04 136.77 316.55 130.48 319.00 125.00
C 321.76 116.38 326.66 108.50 330.00 100.00
C 340.99 72.00 355.83 45.24 368.00 18.00
C 369.82 11.84 372.62 6.01 375.00 0.00
L 374.00 0.00
C 366.10 15.30 359.65 31.23 353.00 47.00 Z" data-index="56" style="opacity: 1;"></path>
</g>
<g fill="#FD8831" fill-opacity="1.00" stroke="None"><path d="
M 368.00 18.00 
C 363.71 32.52 354.31 44.96 349.22 59.22 C 344.14 73.49 337.00 86.89 330.00 100.00
C 326.66 108.50 321.76 116.38 319.00 125.00
C 309.04 156.07 290.39 183.19 278.69 213.69 C 267.00 244.19 249.55 273.07 239.00 304.00
C 249.60 304.05 259.31 303.93 270.00 304.00 C 280.69 304.07 291.11 303.87 302.00 304.00 C 312.89 304.13 322.76 303.72 334.00 304.00 C 345.24 304.28 336.33 317.17 334.22 324.22 C 332.11 331.28 327.43 339.76 325.22 347.22 C 323.02 354.68 319.56 362.18 316.69 369.69 C 313.83 377.21 311.55 385.63 308.08 393.08 C 304.61 400.52 302.69 408.43 298.68 415.68 C 294.67 422.93 293.99 432.19 290.67 439.67 C 287.35 447.16 284.06 454.52 281.22 462.22 C 278.39 469.93 275.69 477.99 272.00 485.00
C 271.92 485.49 272.00 486.00 272.00 486.00
C 265.84 512.28 252.35 537.10 244.01 563.01 C 235.67 588.91 222.21 613.77 215.00 640.00
C 211.26 653.58 201.69 667.51 202.00 681.00
C 204.98 676.03 207.92 671.76 211.00 667.00
C 235.31 631.92 258.20 596.60 280.77 560.77 C 303.34 524.94 327.11 489.00 349.92 452.92 C 372.73 416.83 396.20 382.17 418.77 345.77 C 441.34 309.37 467.73 275.05 487.00 237.00
C 456.67 237.00 426.33 237.00 396.00 237.00
C 445.27 157.53 498.09 79.44 548.00 0.00
L 375.00 0.00
C 372.62 6.01 369.82 11.84 368.00 18.00 Z" data-index="57" style="opacity: 1;"></path>
</g>
<g fill="#D87024" fill-opacity="1.00" stroke="None"><path d="
M 211.00 667.00 
C 211.70 666.40 218.07 660.81 220.75 655.75 C 223.43 650.70 227.96 646.19 231.30 641.30 C 234.65 636.42 238.33 630.67 241.92 625.92 C 245.52 621.18 248.74 615.97 252.30 611.30 C 255.86 606.64 259.16 600.38 264.00 597.00
C 264.22 596.64 264.00 596.00 264.00 596.00
C 265.50 593.60 267.27 592.01 269.00 590.00
C 276.07 579.69 284.16 569.82 290.00 559.00
C 293.95 551.68 302.07 538.51 309.00 534.00
C 309.22 533.64 309.00 533.00 309.00 533.00
C 314.72 523.81 321.23 515.25 328.00 507.00
C 330.70 502.91 333.64 499.06 336.00 495.00
C 340.02 488.08 345.29 478.68 352.00 474.00
C 352.24 473.68 352.00 473.00 352.00 473.00
C 357.63 457.39 372.80 445.59 381.25 431.25 C 389.70 416.90 401.33 403.77 410.77 389.77 C 420.21 375.77 431.04 361.78 440.92 347.92 C 450.80 334.05 460.12 319.95 470.30 306.30 C 480.48 292.66 489.46 277.49 501.00 265.00
C 511.84 248.92 524.51 233.69 534.00 217.00
C 500.00 217.00 466.00 217.00 432.00 217.00
C 437.18 209.37 442.25 201.52 448.00 194.00
C 448.24 193.68 448.00 193.00 448.00 193.00
C 451.80 182.47 462.41 173.86 468.25 164.25 C 474.10 154.64 482.41 144.21 490.00 136.00
C 493.68 130.63 497.61 123.77 503.00 120.00
C 503.00 120.00 502.84 119.44 503.00 119.00
C 507.31 107.06 519.84 96.94 526.00 86.00
C 543.14 55.57 570.79 31.01 587.00 0.00
L 548.00 0.00
C 498.09 79.44 445.27 157.53 396.00 237.00
C 426.33 237.00 456.67 237.00 487.00 237.00
C 467.73 275.05 441.34 309.37 418.77 345.77 C 396.20 382.17 372.73 416.83 349.92 452.92 C 327.11 489.00 303.34 524.94 280.77 560.77 C 258.20 596.60 235.31 631.92 211.00 667.00 Z" data-index="58" style="opacity: 1;"></path>
</g>
<g fill="#D09363" fill-opacity="1.00" stroke="None"><path d="
M 526.00 86.00 
C 547.64 57.75 569.62 29.53 589.00 0.00
L 587.00 0.00
C 570.79 31.01 543.14 55.57 526.00 86.00 Z" data-index="59" style="opacity: 1;"></path>
</g>
<g fill="#F5D3B2" fill-opacity="1.00" stroke="None">
</g>
<g fill="#C8C8C8" fill-opacity="1.00" stroke="None"><path d="
M 8.00 6.00 
C 8.08 5.81 9.50 6.00 10.00 6.00
C 22.82 6.00 35.12 6.00 48.00 6.00 C 60.88 6.00 72.93 6.00 86.00 6.00 C 99.07 6.00 111.60 6.01 125.00 6.00 C 138.40 5.99 131.99 24.60 133.00 36.00 C 134.01 47.40 132.36 61.83 133.00 74.00 C 133.64 86.17 132.29 100.56 133.00 113.00 C 133.71 125.44 131.73 138.53 133.00 151.00 C 134.27 163.47 130.39 177.75 133.00 190.00
C 134.46 188.70 142.42 192.19 146.00 191.00 C 149.58 189.81 155.38 191.50 160.00 191.00 C 164.62 190.50 169.66 191.23 175.00 191.00 C 180.34 190.77 182.42 191.07 189.00 191.00 C 195.58 190.93 195.35 190.98 204.00 191.00 C 212.65 191.02 223.05 190.95 232.00 191.00 C 240.95 191.05 252.12 190.90 261.00 191.00 C 269.88 191.10 268.15 190.29 276.00 191.00
C 279.79 185.86 276.00 176.79 277.00 170.00 C 278.00 163.21 276.54 154.25 277.00 147.00 C 277.46 139.75 276.78 131.44 277.00 124.00 C 277.22 116.56 276.88 108.48 277.00 101.00 C 277.12 93.52 276.89 86.51 277.00 79.00 C 277.11 71.49 276.84 63.53 277.00 56.00 C 277.16 48.47 276.68 40.46 277.00 33.00 C 277.32 25.54 276.31 17.25 277.00 10.00 C 277.69 2.75 288.93 6.43 295.00 6.00 C 301.07 5.57 311.72 5.74 318.00 6.00 C 324.28 6.26 335.44 4.87 341.00 6.00 C 346.56 7.13 360.24 2.77 363.00 7.00
C 363.23 7.35 363.20 8.60 363.00 9.00
C 364.46 8.68 364.05 6.87 365.00 6.00
C 351.70 3.35 340.02 6.10 326.00 5.00 C 311.98 3.90 302.03 6.76 287.00 5.00 C 271.97 3.24 275.97 20.38 276.00 33.00 C 276.03 45.62 275.98 60.12 276.00 73.00 C 276.02 85.88 275.99 99.06 276.00 112.00 C 276.01 124.94 276.00 138.03 276.00 151.00 C 276.00 163.97 276.00 177.02 276.00 190.00
C 228.67 190.00 181.33 190.00 134.00 190.00
C 134.00 183.70 134.00 177.29 134.00 171.00 C 134.00 164.71 134.00 159.36 134.00 153.00 C 134.00 146.64 134.01 140.54 134.00 134.00 C 133.99 127.46 134.02 123.00 134.00 116.00 C 133.98 109.00 134.05 106.12 134.00 98.00 C 133.95 89.88 134.11 89.28 134.00 79.00 C 133.89 68.72 134.16 53.24 134.00 43.00 C 133.84 32.76 134.87 31.50 134.00 24.00 C 133.13 16.50 136.45 11.46 133.74 6.26 C 131.04 1.05 121.89 6.41 117.00 5.00 C 112.11 3.59 103.48 5.65 98.00 5.00 C 92.52 4.35 85.66 5.24 80.00 5.00 C 74.34 4.76 67.60 4.98 62.00 5.00 C 56.40 5.02 48.21 4.74 43.00 5.00 C 37.79 5.26 29.03 4.27 25.00 5.00 C 20.97 5.73 8.91 2.86 8.00 6.00 Z" data-index="61"></path>
</g>
<g fill="#767676" fill-opacity="1.00" stroke="None"><path d="
M 8.00 519.00 
C 8.00 519.04 9.00 519.00 9.00 519.00
C 9.25 518.75 9.00 518.00 9.00 518.00
C 9.00 507.33 9.00 496.67 9.00 486.00 C 9.00 475.33 9.00 464.67 9.00 454.00 C 9.00 443.33 9.00 432.67 9.00 422.00 C 9.00 411.33 9.00 400.67 9.00 390.00 C 9.00 379.33 9.00 368.67 9.00 358.00 C 9.00 347.33 9.00 336.67 9.00 326.00 C 9.00 315.33 9.00 304.66 9.00 294.00 C 9.00 283.34 8.99 272.66 9.00 262.00 C 9.01 251.34 8.99 240.66 9.00 230.00 C 9.01 219.34 8.97 208.64 9.00 198.00 C 9.03 187.36 8.93 176.61 9.00 166.00 C 9.07 155.39 8.84 144.55 9.00 134.00 C 9.16 123.45 8.65 112.41 9.00 102.00 C 9.35 91.59 8.22 80.09 9.00 70.00 C 9.78 59.91 7.27 47.39 9.00 38.00 C 10.73 28.61 4.71 14.15 10.00 7.00
C 10.24 6.68 10.00 6.00 10.00 6.00
C 9.50 6.00 8.08 5.81 8.00 6.00
C 4.22 14.51 9.77 27.64 8.00 37.00 C 6.23 46.36 8.80 57.28 8.00 67.00 C 7.20 76.72 8.36 87.11 8.00 97.00 C 7.64 106.89 8.16 117.01 8.00 127.00 C 7.84 136.99 8.07 146.93 8.00 157.00 C 7.93 167.07 8.03 177.91 8.00 188.00 C 7.97 198.09 8.01 207.96 8.00 218.00 C 7.99 228.04 8.01 237.97 8.00 248.00 C 7.99 258.03 8.00 267.97 8.00 278.00 C 8.00 288.03 8.00 297.95 8.00 308.00 C 8.00 318.05 7.99 327.90 8.00 338.00 C 8.01 348.10 7.98 358.90 8.00 369.00 C 8.02 379.10 7.96 388.96 8.00 399.00 C 8.04 409.04 7.92 418.99 8.00 429.00 C 8.08 439.01 7.82 449.01 8.00 459.00 C 8.18 468.99 7.60 479.03 8.00 489.00 C 8.40 498.97 7.10 509.08 8.00 519.00 Z" data-index="62"></path>
</g>
<g fill="#505050" fill-opacity="1.00" stroke="None"><path d="
M 10.00 7.00 
C 50.34 10.65 91.58 4.27 132.00 7.00
C 132.00 68.33 132.00 129.67 132.00 191.00
C 132.16 191.36 133.65 191.92 134.00 192.00
C 133.64 191.84 133.08 190.35 133.00 190.00
C 130.39 177.75 134.27 163.47 133.00 151.00 C 131.73 138.53 133.71 125.44 133.00 113.00 C 132.29 100.56 133.64 86.17 133.00 74.00 C 132.36 61.83 134.01 47.40 133.00 36.00 C 131.99 24.60 138.40 5.99 125.00 6.00 C 111.60 6.01 99.07 6.00 86.00 6.00 C 72.93 6.00 60.88 6.00 48.00 6.00 C 35.12 6.00 22.82 6.00 10.00 6.00
C 10.00 6.00 10.24 6.68 10.00 7.00 Z" data-index="63"></path>
</g>
<g fill="#5B5B5B" fill-opacity="1.00" stroke="None"><path d="
M 276.00 191.00 
C 275.76 191.32 276.00 192.00 276.00 192.00
C 276.83 192.41 277.74 190.22 278.00 190.00
C 281.55 179.03 276.44 165.65 278.00 154.00 C 279.56 142.35 277.27 128.95 278.00 117.00 C 278.73 105.05 277.67 93.11 278.00 81.00 C 278.33 68.89 277.83 56.22 278.00 44.00 C 278.17 31.78 277.87 19.25 278.00 7.00
C 306.33 7.00 334.67 7.00 363.00 7.00
C 360.24 2.77 346.56 7.13 341.00 6.00 C 335.44 4.87 324.28 6.26 318.00 6.00 C 311.72 5.74 301.07 5.57 295.00 6.00 C 288.93 6.43 277.69 2.75 277.00 10.00 C 276.31 17.25 277.32 25.54 277.00 33.00 C 276.68 40.46 277.16 48.47 277.00 56.00 C 276.84 63.53 277.11 71.49 277.00 79.00 C 276.89 86.51 277.12 93.52 277.00 101.00 C 276.88 108.48 277.22 116.56 277.00 124.00 C 276.78 131.44 277.46 139.75 277.00 147.00 C 276.54 154.25 278.00 163.21 277.00 170.00 C 276.00 176.79 279.79 185.86 276.00 191.00 Z" data-index="64"></path>
</g>
<g fill="#5B5B5B" fill-opacity="1.00" stroke="None"><path d="
M 590.00 13.00 
C 597.78 4.08 608.33 7.26 620.00 7.00 C 631.67 6.74 644.17 7.13 656.00 7.00 C 667.83 6.87 680.13 7.10 692.00 7.00
C 688.96 2.65 676.73 7.37 671.00 6.00 C 665.27 4.63 655.66 6.76 649.00 6.00 C 642.34 5.24 634.13 6.66 627.00 6.00 C 619.87 5.34 612.47 7.01 605.00 6.00 C 597.53 4.99 594.06 7.08 590.00 13.00 Z" data-index="65" style="opacity: 1;"></path>
</g>
<g fill="#000000" fill-opacity="1.00" stroke="None"><path d="
M 9.00 518.00 
C 49.68 514.37 91.24 520.73 132.00 518.00
C 132.01 508.20 131.98 498.85 132.00 489.00 C 132.02 479.15 131.97 468.89 132.00 459.00 C 132.03 449.11 131.93 438.86 132.00 429.00 C 132.07 419.14 131.84 408.75 132.00 399.00 C 132.16 389.25 131.66 378.46 132.00 369.00 C 132.34 359.54 131.24 347.80 132.00 339.00 C 132.76 330.20 127.78 315.38 138.00 315.00 C 148.22 314.62 157.98 315.20 168.00 315.00 C 178.02 314.80 187.08 315.13 197.00 315.00 C 206.92 314.87 217.12 315.15 227.00 315.00 C 236.88 314.85 247.23 315.26 257.00 315.00 C 266.77 314.74 279.38 312.34 278.00 324.00 C 276.62 335.66 278.63 343.25 278.00 354.00 C 277.37 364.75 278.29 373.65 278.00 384.00 C 277.71 394.35 278.15 403.82 278.00 414.00 C 277.85 424.18 278.11 433.86 278.00 444.00
C 279.26 443.92 278.56 441.94 280.00 442.00
C 293.93 399.36 310.90 356.48 328.00 315.00
C 328.18 314.57 328.00 314.00 328.00 314.00
C 323.61 309.47 311.60 314.45 305.00 313.00 C 298.40 311.55 288.27 313.79 281.00 313.00 C 273.73 312.21 264.45 313.67 257.00 313.00 C 249.55 312.33 240.60 314.43 234.00 312.00
C 221.34 307.33 234.22 291.38 237.69 282.69 C 241.16 274.01 247.11 261.62 251.23 252.23 C 255.35 242.84 261.31 232.12 265.23 222.23 C 269.15 212.34 275.12 202.06 279.00 192.00
C 274.46 196.81 261.72 191.48 255.00 193.00 C 248.28 194.52 237.50 192.29 230.00 193.00 C 222.50 193.71 212.74 192.63 205.00 193.00 C 197.26 193.37 187.57 192.73 180.00 193.00 C 172.43 193.27 173.30 192.73 168.00 193.00 C 162.70 193.27 159.15 192.56 155.00 193.00 C 150.85 193.44 145.68 192.03 143.00 193.00 C 140.32 193.97 131.28 191.85 132.00 191.00
C 132.00 129.67 132.00 68.33 132.00 7.00
C 91.58 4.27 50.34 10.65 10.00 7.00
C 4.71 14.15 10.73 28.61 9.00 38.00 C 7.27 47.39 9.78 59.91 9.00 70.00 C 8.22 80.09 9.35 91.59 9.00 102.00 C 8.65 112.41 9.16 123.45 9.00 134.00 C 8.84 144.55 9.07 155.39 9.00 166.00 C 8.93 176.61 9.03 187.36 9.00 198.00 C 8.97 208.64 9.01 219.34 9.00 230.00 C 8.99 240.66 9.01 251.34 9.00 262.00 C 8.99 272.66 9.00 283.34 9.00 294.00 C 9.00 304.66 9.00 315.33 9.00 326.00 C 9.00 336.67 9.00 347.33 9.00 358.00 C 9.00 368.67 9.00 379.33 9.00 390.00 C 9.00 400.67 9.00 411.33 9.00 422.00 C 9.00 432.67 9.00 443.33 9.00 454.00 C 9.00 464.67 9.00 475.33 9.00 486.00 C 9.00 496.67 9.00 507.33 9.00 518.00 Z" data-index="66" style="opacity: 1;"></path>
</g>
<g fill="#000000" fill-opacity="1.00" stroke="None"><path d="
M 278.00 190.00 
C 278.48 189.59 279.62 189.38 280.00 189.00
C 288.10 171.94 297.27 154.02 304.22 136.22 C 311.18 118.43 322.51 101.77 329.00 84.00
C 329.37 82.99 329.67 81.81 330.00 81.00
C 339.87 56.71 351.18 32.20 363.00 9.00
C 363.20 8.60 363.23 7.35 363.00 7.00
C 334.67 7.00 306.33 7.00 278.00 7.00
C 277.87 19.25 278.17 31.78 278.00 44.00 C 277.83 56.22 278.33 68.89 278.00 81.00 C 277.67 93.11 278.73 105.05 278.00 117.00 C 277.27 128.95 279.56 142.35 278.00 154.00 C 276.44 165.65 281.55 179.03 278.00 190.00 Z" data-index="67" style="opacity: 1;"></path>
</g>
<g fill="#000000" fill-opacity="1.00" stroke="None"><path d="
M 590.00 13.00 
C 580.01 27.57 568.59 41.14 559.00 56.00
C 557.49 58.34 555.63 59.99 554.00 62.00
C 551.13 66.45 548.02 70.60 545.00 75.00
C 542.48 78.67 539.74 81.67 537.00 85.00
C 535.10 90.62 529.13 94.51 527.00 100.00
C 582.00 100.00 637.00 100.00 692.00 100.00
C 691.90 93.78 692.13 87.18 692.00 81.00 C 691.87 74.82 692.26 68.04 692.00 62.00 C 691.74 55.96 692.59 49.78 692.00 44.00 C 691.41 38.22 693.23 30.30 692.00 25.00 C 690.77 19.70 694.88 11.11 692.00 7.00
C 680.13 7.10 667.83 6.87 656.00 7.00 C 644.17 7.13 631.67 6.74 620.00 7.00 C 608.33 7.26 597.78 4.08 590.00 13.00 Z" data-index="68" style="opacity: 1;"></path>
</g>
<g fill="#E8A269" fill-opacity="1.00" stroke="None"><path d="
M 330.00 100.00 
C 337.00 86.89 344.14 73.49 349.22 59.22 C 354.31 44.96 363.71 32.52 368.00 18.00
C 355.83 45.24 340.99 72.00 330.00 100.00 Z" data-index="69" style="opacity: 1;"></path>
</g>
<g fill="#FCF5E4" fill-opacity="1.00" stroke="None">
</g>
<g fill="#727573" fill-opacity="1.00" stroke="None"><path d="
M 554.00 62.00 
C 555.63 59.99 557.49 58.34 559.00 56.00
C 557.37 58.01 555.51 59.66 554.00 62.00 Z" data-index="71"></path>
</g>
<g fill="#7A7A7B" fill-opacity="1.00" stroke="None"><path d="
M 537.00 85.00 
C 539.74 81.67 542.48 78.67 545.00 75.00
C 542.25 78.19 539.39 81.30 537.00 85.00 Z" data-index="72"></path>
</g>
<g fill="#F0CAA5" fill-opacity="1.00" stroke="None">
</g>
<g fill="#F0B88A" fill-opacity="1.00" stroke="None"><path d="
M 310.00 142.00 
C 307.79 145.81 304.81 150.34 303.00 154.00
C 302.08 156.86 301.24 159.18 300.00 162.00
C 292.28 179.47 284.10 196.90 276.00 214.00
C 275.64 215.11 275.45 215.91 275.00 217.00
C 262.83 246.31 247.46 274.98 237.00 305.00
C 271.00 305.00 305.00 305.00 339.00 305.00
C 337.42 311.90 335.48 319.55 331.00 325.00
C 323.35 356.85 307.97 388.50 296.00 419.00
C 292.69 427.44 290.06 437.08 286.22 445.22 C 282.38 453.37 281.54 465.17 276.00 472.00
C 276.00 472.00 276.18 472.57 276.00 473.00
C 274.44 476.78 272.66 480.95 272.00 485.00
C 275.69 477.99 278.39 469.93 281.22 462.22 C 284.06 454.52 287.35 447.16 290.67 439.67 C 293.99 432.19 294.67 422.93 298.68 415.68 C 302.69 408.43 304.61 400.52 308.08 393.08 C 311.55 385.63 313.83 377.21 316.69 369.69 C 319.56 362.18 323.02 354.68 325.22 347.22 C 327.43 339.76 332.11 331.28 334.22 324.22 C 336.33 317.17 345.24 304.28 334.00 304.00 C 322.76 303.72 312.89 304.13 302.00 304.00 C 291.11 303.87 280.69 304.07 270.00 304.00 C 259.31 303.93 249.60 304.05 239.00 304.00
C 249.55 273.07 267.00 244.19 278.69 213.69 C 290.39 183.19 309.04 156.07 319.00 125.00
C 316.55 130.48 313.04 136.77 310.00 142.00 Z" data-index="74" style="opacity: 1; visibility: hidden;"></path>
</g>
<g fill="#000000" fill-opacity="1.00" stroke="None"><path d="
M 494.00 144.00 
C 493.09 145.35 492.73 146.76 492.00 148.00
C 490.38 150.77 487.82 152.67 486.00 155.00
C 474.74 173.19 459.46 189.08 448.00 207.00
C 447.77 207.35 448.00 208.00 448.00 208.00
C 451.47 211.58 460.73 208.16 466.00 209.00 C 471.27 209.84 479.25 208.88 485.00 209.00 C 490.75 209.12 498.16 209.53 504.00 209.00
C 504.00 208.50 504.00 208.00 504.00 208.00
C 503.34 182.82 505.33 156.43 503.00 132.00
C 500.16 136.13 496.82 139.81 494.00 144.00 Z" data-index="75" style="opacity: 1;"></path>
</g>
<g fill="#CC8D58" fill-opacity="1.00" stroke="None">
</g>
<g fill="#BBB7B2" fill-opacity="1.00" stroke="None"><path d="
M 490.00 149.00 
C 490.43 148.60 491.68 148.36 492.00 148.00
C 492.73 146.76 493.09 145.35 494.00 144.00
C 492.50 145.73 491.28 146.93 490.00 149.00 Z" data-index="77"></path>
</g>
<g fill="#6E6E69" fill-opacity="1.00" stroke="None"><path d="
M 490.00 149.00 
C 488.73 151.06 487.29 152.92 486.00 155.00
C 487.82 152.67 490.38 150.77 492.00 148.00
C 491.68 148.36 490.43 148.60 490.00 149.00 Z" data-index="78"></path>
</g>
<g fill="#FEF3DE" fill-opacity="1.00" stroke="None">
</g>
<g fill="#272727" fill-opacity="1.00" stroke="None"><path d="
M 278.00 190.00 
C 277.74 190.22 276.83 192.41 276.00 192.00
C 260.61 193.39 244.47 191.93 229.00 192.00 C 213.53 192.07 197.40 193.22 182.00 192.00 C 166.60 190.78 149.06 195.21 134.00 192.00
C 133.65 191.92 132.16 191.36 132.00 191.00
C 131.28 191.85 140.32 193.97 143.00 193.00 C 145.68 192.03 150.85 193.44 155.00 193.00 C 159.15 192.56 162.70 193.27 168.00 193.00 C 173.30 192.73 172.43 193.27 180.00 193.00 C 187.57 192.73 197.26 193.37 205.00 193.00 C 212.74 192.63 222.50 193.71 230.00 193.00 C 237.50 192.29 248.28 194.52 255.00 193.00 C 261.72 191.48 274.46 196.81 279.00 192.00
C 279.41 190.95 279.49 190.06 280.00 189.00
C 279.62 189.38 278.48 189.59 278.00 190.00 Z" data-index="80"></path>
</g>
<g fill="#848484" fill-opacity="1.00" stroke="None"><path d="
M 134.00 192.00 
C 149.06 195.21 166.60 190.78 182.00 192.00 C 197.40 193.22 213.53 192.07 229.00 192.00 C 244.47 191.93 260.61 193.39 276.00 192.00
C 276.00 192.00 275.76 191.32 276.00 191.00
C 268.15 190.29 269.88 191.10 261.00 191.00 C 252.12 190.90 240.95 191.05 232.00 191.00 C 223.05 190.95 212.65 191.02 204.00 191.00 C 195.35 190.98 195.58 190.93 189.00 191.00 C 182.42 191.07 180.34 190.77 175.00 191.00 C 169.66 191.23 164.62 190.50 160.00 191.00 C 155.38 191.50 149.58 189.81 146.00 191.00 C 142.42 192.19 134.46 188.70 133.00 190.00
C 133.08 190.35 133.64 191.84 134.00 192.00 Z" data-index="81"></path>
</g>
<g fill="#D3D6D5" fill-opacity="1.00" stroke="None"><path d="
M 538.00 211.00 
C 528.80 207.69 514.26 210.00 504.00 210.00
C 498.09 210.00 489.66 209.87 484.00 210.00 C 478.34 210.13 468.73 209.66 464.00 210.00 C 459.27 210.34 446.36 210.08 448.00 208.00
C 448.00 208.00 447.77 207.35 448.00 207.00
C 446.25 207.39 445.70 209.43 446.00 211.00
C 461.07 212.23 477.02 209.36 492.00 211.00 C 506.98 212.64 523.34 207.86 538.00 211.00 Z" data-index="82" style="opacity: 1;"></path>
</g>
<g fill="#5B5D5C" fill-opacity="1.00" stroke="None"><path d="
M 504.00 210.00 
C 503.96 210.00 504.00 209.00 504.00 209.00
C 498.16 209.53 490.75 209.12 485.00 209.00 C 479.25 208.88 471.27 209.84 466.00 209.00 C 460.73 208.16 451.47 211.58 448.00 208.00
C 446.36 210.08 459.27 210.34 464.00 210.00 C 468.73 209.66 478.34 210.13 484.00 210.00 C 489.66 209.87 498.09 210.00 504.00 210.00 Z" data-index="83" style="opacity: 1;"></path>
</g>
<g fill="#A2A2A2" fill-opacity="1.00" stroke="None"><path d="
M 504.00 209.00 
C 504.00 209.00 503.96 210.00 504.00 210.00
C 514.26 210.00 528.80 207.69 538.00 211.00
C 539.47 211.53 540.81 211.75 542.00 213.00
C 540.96 211.76 539.82 210.35 539.00 209.00
C 587.33 209.00 635.67 209.00 684.00 209.00
C 684.00 245.33 684.00 281.67 684.00 318.00
C 624.16 318.67 563.01 316.67 504.00 319.00
C 504.00 318.96 505.00 319.00 505.00 319.00
C 516.40 319.00 527.58 318.94 539.00 319.00 C 550.42 319.06 561.49 318.83 573.00 319.00 C 584.51 319.17 595.30 318.62 607.00 319.00 C 618.70 319.38 627.71 318.12 640.00 319.00 C 652.29 319.88 660.46 317.11 674.00 319.00 C 687.55 320.89 685.33 307.50 685.00 296.00 C 684.67 284.50 684.66 274.66 685.00 263.00 C 685.34 251.34 683.84 241.11 685.00 229.00 C 686.16 216.89 685.76 205.56 672.00 208.00 C 658.24 210.44 650.38 206.84 638.00 208.00 C 625.62 209.16 616.72 207.42 605.00 208.00 C 593.28 208.58 582.46 207.59 571.00 208.00 C 559.54 208.41 548.28 207.48 537.00 208.00 C 525.72 208.52 515.15 206.99 504.00 208.00
C 504.00 208.00 504.00 208.50 504.00 209.00 Z" data-index="84" style="opacity: 1;"></path>
</g>
<g fill="#383838" fill-opacity="1.00" stroke="None"><path d="
M 542.00 213.00 
C 542.23 213.28 542.93 213.76 543.00 214.00
C 542.49 212.55 542.04 211.26 541.00 210.00
C 588.33 210.00 635.67 210.00 683.00 210.00
C 683.00 245.67 683.00 281.33 683.00 317.00
C 673.33 317.02 663.67 316.98 654.00 317.00 C 644.33 317.02 634.67 316.96 625.00 317.00 C 615.33 317.04 605.68 316.91 596.00 317.00 C 586.32 317.09 576.70 316.80 567.00 317.00 C 557.30 317.20 546.63 316.57 537.00 317.00 C 527.37 317.43 517.40 316.02 508.00 317.00 C 498.60 317.98 503.97 332.76 503.00 341.00 C 502.03 349.24 503.35 361.02 503.00 370.00 C 502.65 378.98 502.96 389.74 503.00 399.00 C 503.04 408.26 502.14 419.50 504.00 428.00
C 506.44 391.89 500.74 355.04 504.00 319.00
C 563.01 316.67 624.16 318.67 684.00 318.00
C 684.00 281.67 684.00 245.33 684.00 209.00
C 635.67 209.00 587.33 209.00 539.00 209.00
C 539.82 210.35 540.96 211.76 542.00 213.00 Z" data-index="85" style="opacity: 1;"></path>
</g>
<g fill="#000000" fill-opacity="1.00" stroke="None"><path d="
M 543.00 214.00 
C 545.79 223.68 531.88 232.92 527.92 240.92 C 523.95 248.92 515.47 256.64 510.77 264.77 C 506.07 272.90 499.06 280.79 493.77 288.77 C 488.48 296.75 481.73 304.81 477.00 313.00
C 476.00 314.73 475.24 315.63 474.00 317.00
C 425.78 383.82 377.15 451.42 330.00 519.00
C 450.66 519.00 571.34 519.00 692.00 519.00
C 690.62 504.34 693.84 488.54 692.00 474.00 C 690.16 459.46 695.52 443.12 692.00 429.00
C 683.03 428.97 673.96 429.04 665.00 429.00 C 656.04 428.96 646.93 429.07 638.00 429.00 C 629.07 428.93 619.86 429.15 611.00 429.00 C 602.14 428.85 592.69 429.32 584.00 429.00 C 575.31 428.68 565.32 429.71 557.00 429.00 C 548.68 428.29 537.49 430.58 530.00 429.00 C 522.51 427.42 508.97 432.96 504.00 428.00
C 502.14 419.50 503.04 408.26 503.00 399.00 C 502.96 389.74 502.65 378.98 503.00 370.00 C 503.35 361.02 502.03 349.24 503.00 341.00 C 503.97 332.76 498.60 317.98 508.00 317.00 C 517.40 316.02 527.37 317.43 537.00 317.00 C 546.63 316.57 557.30 317.20 567.00 317.00 C 576.70 316.80 586.32 317.09 596.00 317.00 C 605.68 316.91 615.33 317.04 625.00 317.00 C 634.67 316.96 644.33 317.02 654.00 317.00 C 663.67 316.98 673.33 317.02 683.00 317.00
C 683.00 281.33 683.00 245.67 683.00 210.00
C 635.67 210.00 588.33 210.00 541.00 210.00
C 542.04 211.26 542.49 212.55 543.00 214.00 Z" data-index="86" style="opacity: 1;"></path>
</g>
<g fill="#FEEFD7" fill-opacity="1.00" stroke="None">
</g>
<g fill="#D19666" fill-opacity="1.00" stroke="None"><path d="
M 352.00 473.00 
C 365.09 463.86 370.06 443.95 381.75 432.75 C 393.44 421.55 398.93 403.06 410.75 391.75 C 422.58 380.45 427.53 360.41 441.00 351.00
C 441.00 351.00 440.78 350.36 441.00 350.00
C 449.70 336.01 460.90 323.41 470.00 310.00
C 476.97 294.04 491.04 279.51 501.00 265.00
C 489.46 277.49 480.48 292.66 470.30 306.30 C 460.12 319.95 450.80 334.05 440.92 347.92 C 431.04 361.78 420.21 375.77 410.77 389.77 C 401.33 403.77 389.70 416.90 381.25 431.25 C 372.80 445.59 357.63 457.39 352.00 473.00 Z" data-index="88" style="opacity: 1; visibility: hidden;"></path>
</g>
<g fill="#FCE7CF" fill-opacity="1.00" stroke="None"><path d="
M 441.00 350.00 
C 447.39 345.84 454.18 337.37 457.67 331.67 C 461.17 325.97 467.18 316.46 470.00 310.00
C 460.90 323.41 449.70 336.01 441.00 350.00 Z" data-index="89"></path>
</g>
<g fill="#D4D6D7" fill-opacity="1.00" stroke="None">
</g>
<g fill="#4F5355" fill-opacity="1.00" stroke="None"><path d="
M 328.00 314.00 
C 329.11 312.60 312.75 311.31 307.00 312.00 C 301.25 312.69 290.08 311.69 283.00 312.00 C 275.92 312.31 265.56 311.83 258.00 312.00 C 250.44 312.17 241.67 311.87 234.00 312.00
C 240.60 314.43 249.55 312.33 257.00 313.00 C 264.45 313.67 273.73 312.21 281.00 313.00 C 288.27 313.79 298.40 311.55 305.00 313.00 C 311.60 314.45 323.61 309.47 328.00 314.00 Z" data-index="91" style="opacity: 1;"></path>
</g>
<g fill="#575B61" fill-opacity="1.00" stroke="None"><path d="
M 474.00 317.00 
C 475.24 315.63 476.00 314.73 477.00 313.00
C 476.08 314.19 474.83 315.85 474.00 317.00 Z" data-index="92"></path>
</g>
<g fill="#4C4C4B" fill-opacity="1.00" stroke="None"><path d="
M 9.00 518.00 
C 9.00 518.00 9.25 518.75 9.00 519.00
C 50.33 518.99 91.67 519.01 133.00 519.00
C 133.00 451.33 133.00 383.67 133.00 316.00
C 181.00 316.00 229.00 316.00 277.00 316.00
C 277.02 323.34 276.97 330.65 277.00 338.00 C 277.03 345.35 276.95 352.64 277.00 360.00 C 277.05 367.36 276.90 375.72 277.00 383.00 C 277.10 390.28 276.76 397.97 277.00 405.00 C 277.24 412.03 276.47 420.43 277.00 427.00 C 277.53 433.57 274.97 444.03 279.00 446.00
C 279.45 444.70 279.58 443.28 280.00 442.00
C 278.56 441.94 279.26 443.92 278.00 444.00
C 278.11 433.86 277.85 424.18 278.00 414.00 C 278.15 403.82 277.71 394.35 278.00 384.00 C 278.29 373.65 277.37 364.75 278.00 354.00 C 278.63 343.25 276.62 335.66 278.00 324.00 C 279.38 312.34 266.77 314.74 257.00 315.00 C 247.23 315.26 236.88 314.85 227.00 315.00 C 217.12 315.15 206.92 314.87 197.00 315.00 C 187.08 315.13 178.02 314.80 168.00 315.00 C 157.98 315.20 148.22 314.62 138.00 315.00 C 127.78 315.38 132.76 330.20 132.00 339.00 C 131.24 347.80 132.34 359.54 132.00 369.00 C 131.66 378.46 132.16 389.25 132.00 399.00 C 131.84 408.75 132.07 419.14 132.00 429.00 C 131.93 438.86 132.03 449.11 132.00 459.00 C 131.97 468.89 132.02 479.15 132.00 489.00 C 131.98 498.85 132.01 508.20 132.00 518.00
C 91.24 520.73 49.68 514.37 9.00 518.00 Z" data-index="93" style="opacity: 1;"></path>
</g>
<g fill="#BBBBBB" fill-opacity="1.00" stroke="None"><path d="
M 9.00 519.00 
C 9.00 519.00 8.00 519.04 8.00 519.00
C 17.58 520.78 29.62 520.07 40.00 520.00 C 50.38 519.93 62.90 520.51 73.00 520.00 C 83.10 519.49 96.78 521.30 106.00 520.00 C 115.22 518.70 132.43 525.15 134.00 515.00 C 135.57 504.85 133.29 492.62 134.00 482.00 C 134.71 471.38 133.68 459.83 134.00 449.00 C 134.32 438.17 133.85 426.92 134.00 416.00 C 134.15 405.08 133.93 393.96 134.00 383.00 C 134.07 372.04 133.96 360.98 134.00 350.00 C 134.04 339.02 133.97 327.99 134.00 317.00
C 181.33 317.00 228.67 317.00 276.00 317.00
C 276.00 361.33 276.00 405.67 276.00 450.00
C 278.46 450.39 278.47 447.53 279.00 446.00
C 274.97 444.03 277.53 433.57 277.00 427.00 C 276.47 420.43 277.24 412.03 277.00 405.00 C 276.76 397.97 277.10 390.28 277.00 383.00 C 276.90 375.72 277.05 367.36 277.00 360.00 C 276.95 352.64 277.03 345.35 277.00 338.00 C 276.97 330.65 277.02 323.34 277.00 316.00
C 229.00 316.00 181.00 316.00 133.00 316.00
C 133.00 383.67 133.00 451.33 133.00 519.00
C 91.67 519.01 50.33 518.99 9.00 519.00 Z" data-index="94" style="opacity: 1;"></path>
</g>
<g fill="#C8C8C8" fill-opacity="1.00" stroke="None"><path d="
M 504.00 428.00 
C 566.50 428.67 630.32 426.67 692.00 429.00
C 686.42 425.05 673.82 427.47 664.00 427.00 C 654.18 426.53 642.27 427.21 632.00 427.00 C 621.73 426.79 610.47 427.10 600.00 427.00 C 589.53 426.90 578.53 427.05 568.00 427.00 C 557.47 426.95 546.50 427.02 536.00 427.00 C 525.50 426.98 515.46 427.02 505.00 427.00
C 502.61 391.21 508.19 354.72 505.00 319.00
C 505.00 319.00 504.00 318.96 504.00 319.00
C 500.74 355.04 506.44 391.89 504.00 428.00 Z" data-index="95"></path>
</g>
<g fill="#F7D9BB" fill-opacity="1.00" stroke="None">
</g>
<g fill="#FEF5E2" fill-opacity="1.00" stroke="None"><path d="
M 276.00 472.00 
C 281.54 465.17 282.38 453.37 286.22 445.22 C 290.06 437.08 292.69 427.44 296.00 419.00
C 287.41 434.10 278.89 454.43 276.00 472.00 Z" data-index="97" style="opacity: 1; visibility: hidden;"></path>
</g>
<g fill="#5D5D5D" fill-opacity="1.00" stroke="None"><path d="
M 692.00 429.00 
C 630.32 426.67 566.50 428.67 504.00 428.00
C 508.97 432.96 522.51 427.42 530.00 429.00 C 537.49 430.58 548.68 428.29 557.00 429.00 C 565.32 429.71 575.31 428.68 584.00 429.00 C 592.69 429.32 602.14 428.85 611.00 429.00 C 619.86 429.15 629.07 428.93 638.00 429.00 C 646.93 429.07 656.04 428.96 665.00 429.00 C 673.96 429.04 683.03 428.97 692.00 429.00 Z" data-index="98"></path>
</g>
<g fill="#FEF3DC" fill-opacity="1.00" stroke="None">
</g>
<g fill="#D19769" fill-opacity="1.00" stroke="None"><path d="
M 336.00 495.00 
C 338.02 492.54 341.11 490.46 343.00 488.00
C 344.04 486.29 344.92 483.67 346.00 482.00
C 347.79 479.22 349.96 476.67 352.00 474.00
C 345.29 478.68 340.02 488.08 336.00 495.00 Z" data-index="100" style="opacity: 1; visibility: hidden;"></path>
</g>
<g fill="#FDF5E3" fill-opacity="1.00" stroke="None">
</g>
<g fill="#F6C99F" fill-opacity="1.00" stroke="None"><path d="
M 261.00 510.00 
C 259.29 517.03 257.46 523.53 254.00 530.00
C 249.63 546.12 242.85 563.01 236.00 578.00
C 228.43 601.62 217.05 624.14 210.00 648.00
C 211.11 645.49 214.01 642.52 215.00 640.00
C 222.21 613.77 235.67 588.91 244.01 563.01 C 252.35 537.10 265.84 512.28 272.00 486.00
C 267.31 491.85 263.48 503.02 261.00 510.00 Z" data-index="102" style="opacity: 1; visibility: hidden;"></path>
</g>
<g fill="#F2CEAC" fill-opacity="1.00" stroke="None">
</g>
<g fill="#CD9463" fill-opacity="1.00" stroke="None"><path d="
M 309.00 533.00 
C 316.70 527.98 322.95 514.66 328.00 507.00
C 321.23 515.25 314.72 523.81 309.00 533.00 Z" data-index="104" style="opacity: 1;"></path>
</g>
<g fill="#FEF2DF" fill-opacity="1.00" stroke="None"><path d="
M 236.00 578.00 
C 242.85 563.01 249.63 546.12 254.00 530.00
C 246.14 544.72 241.56 560.63 236.00 578.00 Z" data-index="105"></path>
</g>
<g fill="#CE905E" fill-opacity="1.00" stroke="None"><path d="
M 290.00 559.00 
C 293.25 554.76 297.25 549.59 301.00 546.00
C 301.00 546.00 300.76 545.32 301.00 545.00
C 303.75 541.40 306.60 537.86 309.00 534.00
C 302.07 538.51 293.95 551.68 290.00 559.00 Z" data-index="106" style="opacity: 1;"></path>
</g>
<g fill="#F7D8BA" fill-opacity="1.00" stroke="None">
</g>
<g fill="#D19C6D" fill-opacity="1.00" stroke="None"><path d="
M 264.00 596.00 
C 266.36 594.46 267.42 592.30 269.00 590.00
C 267.27 592.01 265.50 593.60 264.00 596.00 Z" data-index="108"></path>
</g>
<g fill="#DE9D6A" fill-opacity="1.00" stroke="None">
</g>
</svg>